<?xml version="1.0" standalone="no"?>
<!DOCTYPE svg PUBLIC "-//W3C//DTD SVG 20010904//EN"
 "http://www.w3.org/TR/2001/REC-SVG-20010904/DTD/svg10.dtd">
<svg version="1.0" xmlns="http://www.w3.org/2000/svg"
 width="256.000000pt" height="213.000000pt" viewBox="0 0 256.000000 213.000000"
 preserveAspectRatio="xMidYMid meet">
<metadata>
Created by potrace 1.16, written by Peter Selinger 2001-2019
</metadata>
<g transform="translate(0.000000,213.000000) scale(0.100000,-0.100000)"
fill="#000000" stroke="none">
<path d="M1068 1884 c-9 -101 -61 -175 -148 -212 -34 -15 -47 -17 -160 -26
-30 -3 -70 -9 -89 -15 -22 -7 -40 -7 -52 -1 -27 15 -38 12 -44 -12 -6 -22 -11
-23 -81 -21 -88 2 -134 25 -184 95 l-30 41 0 -52 c0 -104 71 -171 183 -171 15
0 27 -4 27 -9 0 -11 -58 -61 -71 -61 -5 0 -9 -5 -9 -10 0 -7 25 -10 67 -8 l68
3 3 34 c3 33 30 86 39 77 3 -2 -1 -15 -8 -28 -7 -12 -16 -60 -19 -105 -5 -61
-12 -89 -26 -104 -14 -16 -15 -23 -6 -26 6 -3 12 -13 12 -23 0 -11 12 -31 26
-45 23 -23 32 -26 68 -21 63 10 119 46 132 85 9 27 12 30 16 15 3 -11 2 -28
-2 -39 -7 -19 26 -114 45 -127 15 -11 20 -10 45 12 13 11 37 20 57 20 20 0 33
5 33 13 0 16 -37 77 -47 77 -5 0 -16 -14 -26 -32 -23 -40 -34 -28 -39 43 l-4
56 33 -7 c65 -15 76 -30 112 -150 37 -121 58 -148 106 -136 31 8 42 28 54 105
12 73 20 86 68 102 l35 11 -23 24 c-12 13 -26 24 -31 24 -4 0 -20 -26 -34 -57
-24 -56 -50 -93 -64 -93 -8 0 -3 114 6 158 2 12 11 22 19 22 44 0 105 68 92
103 -2 7 -10 0 -17 -15 -26 -55 -128 -61 -202 -13 -45 30 -44 30 -51 6 -5 -19
-60 -40 -145 -55 -51 -9 -28 10 27 24 61 14 74 29 69 75 l-4 35 61 2 c33 0 70
0 83 -1 12 -1 22 1 22 5 0 19 -38 65 -66 80 l-32 18 36 26 c57 41 100 96 108
136 9 46 0 130 -18 174 l-15 35 -5 -61z"/>
<path d="M885 1923 c-110 -24 -208 -113 -235 -211 -6 -23 -15 -44 -20 -47 -16
-10 -11 -25 8 -25 9 0 43 8 74 18 51 16 55 19 37 30 -39 25 -15 69 61 108 29
15 32 19 15 22 -38 8 -47 23 -28 45 10 10 29 24 43 29 33 13 108 12 143 -1 43
-17 31 -2 -15 19 -44 20 -49 21 -83 13z"/>
<path d="M1146 1760 c5 -8 34 -53 65 -100 79 -118 110 -184 116 -244 4 -45 2
-54 -19 -73 -13 -13 -42 -29 -63 -36 l-39 -14 27 -18 c36 -23 34 -44 -7 -84
-19 -19 -44 -56 -56 -83 l-21 -50 22 -24 c26 -28 55 -31 87 -8 32 22 42 10 42
-56 0 -66 6 -73 73 -85 44 -8 53 5 39 56 -6 26 -14 34 -31 34 -30 1 -41 21
-41 76 0 25 -3 48 -6 52 -3 3 -19 1 -35 -5 -39 -13 -44 -7 -25 30 20 39 65 74
90 70 19 -3 22 -9 40 -90 4 -17 23 -39 51 -58 57 -40 60 -71 10 -145 -19 -29
-39 -65 -45 -80 -14 -36 -1 -55 16 -24 l13 24 1 -27 c0 -24 4 -28 28 -28 51 0
61 17 84 142 l20 117 -22 36 c-20 32 -24 56 -30 193 -4 87 -13 172 -20 190
-17 46 -1 62 61 62 74 0 118 -22 119 -58 0 -7 -22 -37 -50 -66 -27 -29 -50
-60 -50 -68 0 -53 134 -71 202 -27 20 13 37 27 38 31 0 4 -24 10 -54 13 -42 6
-60 3 -78 -9 -26 -19 -74 -21 -84 -4 -4 7 2 18 15 27 64 45 82 67 83 99 2 57
-46 93 -150 112 -45 8 -73 8 -103 0 -41 -11 -42 -11 -79 27 -22 23 -54 44 -80
52 -32 9 -61 31 -104 75 -33 33 -55 54 -50 46z"/>
<path d="M1215 843 c-113 -9 -243 -27 -353 -49 -122 -24 -348 -91 -339 -100 3
-3 40 4 83 15 183 46 388 73 656 87 133 6 136 7 141 30 4 24 3 24 -72 22 -42
-1 -94 -3 -116 -5z"/>
<path d="M1567 823 c-2 -12 -2 -25 1 -28 3 -3 33 -5 68 -5 146 0 407 -36 588
-81 43 -11 80 -18 83 -15 9 9 -217 76 -339 100 -113 23 -249 41 -355 49 -36 2
-42 0 -46 -20z"/>
<path d="M685 628 c-3 -7 -4 -86 -3 -173 l3 -160 62 -3 c123 -6 183 28 183
103 0 37 -5 48 -29 66 -28 21 -28 22 -10 40 26 26 24 72 -4 105 -22 25 -31 28
-110 32 -69 4 -88 2 -92 -10z"/>
<path d="M972 618 c2 -18 9 -22 27 -20 26 4 81 -16 81 -29 0 -5 -25 -9 -56 -9
-52 0 -55 -1 -52 -22 3 -21 9 -23 56 -23 66 0 63 -18 -4 -25 -41 -4 -49 -8
-52 -27 -3 -20 1 -23 35 -23 48 -1 62 -12 104 -80 18 -30 38 -58 43 -62 16
-11 54 -10 61 2 8 13 -59 114 -94 141 -19 16 -22 23 -12 27 7 2 23 14 34 25
12 12 32 21 46 21 19 1 27 7 29 23 3 18 -2 22 -30 25 -45 4 -50 33 -6 36 38 3
42 6 35 27 -5 12 -28 15 -127 15 -120 0 -121 0 -118 -22z"/>
<path d="M1343 625 c-17 -7 -43 -32 -57 -54 -22 -34 -26 -53 -26 -111 0 -120
48 -170 162 -170 107 0 163 62 163 180 0 81 -23 131 -72 154 -41 19 -127 20
-170 1z m114 -45 c39 -14 53 -46 53 -121 0 -54 -3 -64 -29 -90 -36 -36 -79
-38 -116 -6 -50 44 -42 182 13 211 33 18 41 19 79 6z"/>
<path d="M1685 628 c-33 -17 -45 -40 -45 -81 0 -54 15 -76 68 -99 85 -37 101
-65 56 -95 -26 -17 -57 -13 -117 12 -16 7 -18 4 -15 -21 4 -39 39 -56 110 -51
67 4 104 31 114 83 10 52 -13 85 -81 119 -43 21 -61 36 -63 52 -5 35 35 49 83
29 48 -20 45 -21 45 14 0 24 -6 33 -26 40 -34 13 -104 12 -129 -2z"/>
<path d="M1922 628 c-8 -8 -12 -59 -12 -163 0 -104 4 -155 12 -163 8 -8 46
-12 105 -12 l93 0 0 30 0 30 -65 0 -65 0 0 45 0 45 55 0 c54 0 55 0 55 30 0
30 -1 30 -55 30 l-55 0 0 40 0 40 65 0 65 0 0 30 0 30 -93 0 c-59 0 -97 -4
-105 -12z"/>
</g>
</svg>
